<svg width="56" height="56" viewBox="0 0 56 56" fill="none" xmlns="http://www.w3.org/2000/svg">
<circle cx="28" cy="28" r="28" fill="#4FBDBA"/>
<path d="M19.2727 20C17.4727 20 16 21.44 16 23.2V30.6667C16 32.0533 16.9164 33.2377 18.1818 33.675V23.2C18.1818 22.6133 18.6727 22.1333 19.2727 22.1333H36.7273C37.3273 22.1333 37.8182 22.6133 37.8182 23.2V33.675C39.0836 33.2377 40 32.0533 40 30.6667V23.2C40 21.44 38.5273 20 36.7273 20H19.2727ZM34.5455 24.2667C33.9433 24.2667 33.4545 24.7445 33.4545 25.3333V34.9333C33.4545 35.5221 33.9433 36 34.5455 36C35.1476 36 35.6364 35.5221 35.6364 34.9333V25.3333C35.6364 24.7445 35.1476 24.2667 34.5455 24.2667ZM25.8182 26.4C25.216 26.4 24.7273 26.8779 24.7273 27.4667V34.9333C24.7273 35.5221 25.216 36 25.8182 36C26.4204 36 26.9091 35.5221 26.9091 34.9333V27.4667C26.9091 26.8779 26.4204 26.4 25.8182 26.4ZM30.1818 28.5333C29.5796 28.5333 29.0909 29.0112 29.0909 29.6V34.9333C29.0909 35.5221 29.5796 36 30.1818 36C30.784 36 31.2727 35.5221 31.2727 34.9333V29.6C31.2727 29.0112 30.784 28.5333 30.1818 28.5333ZM21.4545 30.6667C20.8524 30.6667 20.3636 31.1445 20.3636 31.7333V34.9333C20.3636 35.5221 20.8524 36 21.4545 36C22.0567 36 22.5455 35.5221 22.5455 34.9333V31.7333C22.5455 31.1445 22.0567 30.6667 21.4545 30.6667Z" fill="white"/>
</svg>
