<svg width="56" height="56" viewBox="0 0 56 56" fill="none" xmlns="http://www.w3.org/2000/svg">
<circle cx="28" cy="28" r="28" fill="#35858B"/>
<path d="M22.775 18C20.7453 18 19.1 19.6495 19.1 21.6842V25.3684C19.1 25.9495 19.5704 26.4211 20.15 26.4211C20.7296 26.4211 21.2 25.9495 21.2 25.3684V21.6842C21.2 20.8126 21.9056 20.1053 22.775 20.1053H34.325C35.1944 20.1053 35.9 20.8126 35.9 21.6842V34.3158C35.9 35.1874 35.1944 35.8947 34.325 35.8947H31.7C31.1204 35.8947 30.65 36.3663 30.65 36.9474C30.65 37.5284 31.1204 38 31.7 38H34.325C36.3546 38 38 36.3505 38 34.3158V21.6842C38 19.6495 36.3546 18 34.325 18H22.775ZM19.1 28.5263C17.9418 28.5263 17 29.4705 17 30.6316V35.8947C17 37.0558 17.9418 38 19.1 38H26.45C27.6081 38 28.55 37.0558 28.55 35.8947V30.6316C28.55 29.4705 27.6081 28.5263 26.45 28.5263H19.1ZM19.1 30.6316H26.45L26.4521 35.8947H19.1V30.6316Z" fill="white"/>
</svg>
