<svg width="40" height="40" viewBox="0 0 40 40" fill="none" xmlns="http://www.w3.org/2000/svg">
<path d="M18.1662 3.5C10.4995 4.33334 4.33286 10.5 3.49953 18C2.66619 25.8333 7.16619 32.8333 13.9995 35.5C14.4995 35.6667 14.9995 35.3333 14.9995 34.6667V32C14.9995 32 14.3329 32.1667 13.4995 32.1667C11.1662 32.1667 10.1662 30.1667 9.99953 29C9.83286 28.3333 9.49953 27.8333 8.99953 27.3333C8.49953 27.1667 8.33286 27.1667 8.33286 27C8.33286 26.6667 8.83286 26.6667 8.99953 26.6667C9.99953 26.6667 10.8329 27.8333 11.1662 28.3333C11.9995 29.6667 12.9995 30 13.4995 30C14.1662 30 14.6662 29.8333 14.9995 29.6667C15.1662 28.5 15.6662 27.3333 16.6662 26.6667C12.8329 25.8333 9.99953 23.6667 9.99953 20C9.99953 18.1667 10.8329 16.3333 11.9995 15C11.8329 14.6667 11.6662 13.8333 11.6662 12.6667C11.6662 12 11.6662 11.1667 11.9995 10.5C11.9995 10.1667 12.3329 10 12.4995 10H12.6662C13.4995 10.1667 15.1662 10.6667 16.6662 12.1667C17.6662 11.8333 18.8329 11.6667 19.9995 11.6667C21.1662 11.6667 22.3329 11.8333 23.3329 12.1667C24.8329 10.6667 26.6662 10.1667 27.4995 10H27.6662C27.9995 10 28.1662 10.1667 28.3329 10.5C28.3329 11.1667 28.3329 12 28.3329 12.6667C28.3329 14 28.1662 14.6667 27.9995 15C29.1662 16.3333 29.9995 18 29.9995 20C29.9995 23.6667 27.1662 25.8333 23.3329 26.6667C24.3329 27.5 24.9995 29 24.9995 30.5V34.8333C24.9995 35.3333 25.4995 35.8333 26.1662 35.6667C32.3329 33.1667 36.6662 27.1667 36.6662 20.1667C36.6662 10.1667 28.1662 2.33334 18.1662 3.5Z" fill="black"/>
</svg>
