<svg width="40" height="40" viewBox="0 0 40 40" fill="none" xmlns="http://www.w3.org/2000/svg">
<path d="M31.6667 5H8.33333C6.49167 5 5 6.49167 5 8.33333V31.6667C5 33.5083 6.49167 35 8.33333 35H31.6667C33.5083 35 35 33.5083 35 31.6667V8.33333C35 6.49167 33.5083 5 31.6667 5ZM12.8967 28.3333C11.735 28.3333 10.7933 27.3917 10.7933 26.23V18.7683C10.795 17.6083 11.7367 16.6667 12.8967 16.6667C14.0583 16.6667 15 17.6083 15 18.77V26.2317C15 27.3917 14.0583 28.3333 12.8967 28.3333ZM12.8233 14.5283C11.5383 14.5283 10.68 13.6717 10.68 12.5283C10.68 11.385 11.5367 10.5283 12.965 10.5283C14.25 10.5283 15.1083 11.385 15.1083 12.5283C15.1083 13.6717 14.2517 14.5283 12.8233 14.5283ZM27.965 28.3333C26.8417 28.3333 25.93 27.4217 25.93 26.2983V21.9567C25.93 20.1933 24.845 20 24.4383 20C24.0317 20 22.675 20.0583 22.675 21.9567V26.2983C22.675 27.4217 21.7633 28.3333 20.64 28.3333H20.505C19.3817 28.3333 18.47 27.4217 18.47 26.2983V18.77C18.47 17.6083 19.4117 16.6667 20.5733 16.6667C21.735 16.6667 22.6767 17.6083 22.6767 18.77C22.6767 18.77 23.1467 16.6667 26.34 16.6667C28.3717 16.6667 30 18.295 30 21.9567V26.2983C30 27.4217 29.0883 28.3333 27.965 28.3333Z" fill="black"/>
</svg>
