<svg width="169" height="35" viewBox="0 0 169 35" fill="none" xmlns="http://www.w3.org/2000/svg">
<path d="M40.2787 28V13H43.9687L44.2087 17.5L43.6987 17.02C43.9387 16.04 44.3187 15.23 44.8387 14.59C45.3587 13.95 45.9887 13.48 46.7287 13.18C47.4887 12.86 48.3187 12.7 49.2187 12.7C50.2587 12.7 51.1787 12.9 51.9787 13.3C52.7987 13.7 53.4387 14.31 53.8987 15.13C54.3787 15.93 54.6187 16.94 54.6187 18.16V28H50.5087V19.33C50.5087 18.05 50.2587 17.17 49.7587 16.69C49.2587 16.19 48.6087 15.94 47.8087 15.94C47.2487 15.94 46.6987 16.08 46.1587 16.36C45.6387 16.62 45.2087 17.05 44.8687 17.65C44.5487 18.25 44.3887 19.05 44.3887 20.05V28H40.2787ZM60.0229 10.84C59.1629 10.84 58.5229 10.66 58.1029 10.3C57.6829 9.92 57.4729 9.37 57.4729 8.65C57.4729 7.91 57.6829 7.36 58.1029 7C58.5229 6.62 59.1629 6.43 60.0229 6.43C60.8829 6.43 61.5229 6.62 61.9429 7C62.3629 7.36 62.5729 7.91 62.5729 8.65C62.5729 9.37 62.3629 9.92 61.9429 10.3C61.5229 10.66 60.8829 10.84 60.0229 10.84ZM62.0629 13V28H57.9529V13H62.0629ZM72.3297 12.7C73.6697 12.7 74.7997 12.9 75.7197 13.3C76.6597 13.68 77.4097 14.21 77.9697 14.89C78.5497 15.55 78.9597 16.29 79.1997 17.11L75.3597 18.49C75.1597 17.59 74.8197 16.91 74.3397 16.45C73.8597 15.99 73.2097 15.76 72.3897 15.76C71.6297 15.76 70.9797 15.94 70.4397 16.3C69.8997 16.64 69.4897 17.17 69.2097 17.89C68.9297 18.59 68.7897 19.47 68.7897 20.53C68.7897 21.59 68.9297 22.47 69.2097 23.17C69.5097 23.87 69.9297 24.39 70.4697 24.73C71.0297 25.07 71.6797 25.24 72.4197 25.24C73.0197 25.24 73.5297 25.14 73.9497 24.94C74.3697 24.72 74.7097 24.41 74.9697 24.01C75.2497 23.61 75.4397 23.13 75.5397 22.57L79.2597 23.77C79.0397 24.67 78.6297 25.46 78.0297 26.14C77.4297 26.82 76.6597 27.35 75.7197 27.73C74.7797 28.11 73.6897 28.3 72.4497 28.3C70.9097 28.3 69.5497 27.99 68.3697 27.37C67.1897 26.75 66.2797 25.86 65.6397 24.7C64.9997 23.54 64.6797 22.14 64.6797 20.5C64.6797 18.86 64.9997 17.46 65.6397 16.3C66.2797 15.14 67.1797 14.25 68.3397 13.63C69.4997 13.01 70.8297 12.7 72.3297 12.7ZM88.5133 28.3C86.9333 28.3 85.5533 27.99 84.3733 27.37C83.2133 26.75 82.3133 25.86 81.6733 24.7C81.0333 23.54 80.7133 22.14 80.7133 20.5C80.7133 18.86 81.0333 17.46 81.6733 16.3C82.3133 15.14 83.2033 14.25 84.3433 13.63C85.5033 13.01 86.8233 12.7 88.3033 12.7C89.8233 12.7 91.1133 13.01 92.1733 13.63C93.2333 14.23 94.0433 15.06 94.6033 16.12C95.1633 17.16 95.4433 18.35 95.4433 19.69C95.4433 20.09 95.4333 20.47 95.4133 20.83C95.3933 21.19 95.3633 21.51 95.3233 21.79H83.3533V18.94H93.5233L91.5433 19.66C91.5433 18.4 91.2533 17.43 90.6733 16.75C90.1133 16.07 89.3133 15.73 88.2733 15.73C87.5133 15.73 86.8533 15.91 86.2933 16.27C85.7533 16.63 85.3433 17.17 85.0633 17.89C84.7833 18.59 84.6433 19.48 84.6433 20.56C84.6433 21.62 84.7933 22.5 85.0933 23.2C85.4133 23.88 85.8533 24.39 86.4133 24.73C86.9933 25.07 87.6833 25.24 88.4833 25.24C89.3633 25.24 90.0733 25.07 90.6133 24.73C91.1533 24.39 91.5733 23.92 91.8733 23.32L95.1433 24.58C94.8233 25.36 94.3333 26.03 93.6733 26.59C93.0333 27.15 92.2633 27.58 91.3633 27.88C90.4833 28.16 89.5333 28.3 88.5133 28.3ZM116.966 13H121.346L116.546 28H111.806L108.536 17.8L105.386 28H100.646L95.8462 13H100.226L103.226 24.49L106.556 13H110.636L113.996 24.49L116.966 13ZM129.425 12.7C130.945 12.7 132.275 13.01 133.415 13.63C134.575 14.25 135.475 15.14 136.115 16.3C136.775 17.46 137.105 18.86 137.105 20.5C137.105 22.12 136.775 23.52 136.115 24.7C135.475 25.86 134.575 26.75 133.415 27.37C132.275 27.99 130.945 28.3 129.425 28.3C127.925 28.3 126.595 27.99 125.435 27.37C124.275 26.75 123.365 25.86 122.705 24.7C122.065 23.52 121.745 22.12 121.745 20.5C121.745 18.86 122.065 17.46 122.705 16.3C123.365 15.14 124.275 14.25 125.435 13.63C126.595 13.01 127.925 12.7 129.425 12.7ZM129.425 15.76C128.665 15.76 128.015 15.94 127.475 16.3C126.955 16.64 126.555 17.16 126.275 17.86C125.995 18.56 125.855 19.44 125.855 20.5C125.855 21.56 125.995 22.44 126.275 23.14C126.555 23.84 126.955 24.37 127.475 24.73C128.015 25.07 128.665 25.24 129.425 25.24C130.165 25.24 130.795 25.07 131.315 24.73C131.855 24.37 132.265 23.84 132.545 23.14C132.825 22.44 132.965 21.56 132.965 20.5C132.965 19.44 132.825 18.56 132.545 17.86C132.265 17.16 131.855 16.64 131.315 16.3C130.795 15.94 130.165 15.76 129.425 15.76ZM139.644 28V13H143.214L143.484 15.94C143.884 14.9 144.464 14.1 145.224 13.54C146.004 12.98 146.974 12.7 148.134 12.7C148.474 12.7 148.784 12.73 149.064 12.79C149.344 12.85 149.574 12.93 149.754 13.03L149.274 16.48C149.074 16.4 148.824 16.34 148.524 16.3C148.244 16.26 147.874 16.24 147.414 16.24C146.814 16.24 146.234 16.39 145.674 16.69C145.114 16.97 144.654 17.41 144.294 18.01C143.934 18.59 143.754 19.33 143.754 20.23V28H139.644ZM166.671 13L159.741 20.23L158.931 20.62L154.431 25.45L154.371 21.07L161.991 13H166.671ZM155.511 6.43V28H151.401V6.43H155.511ZM160.311 17.77L167.031 28H162.381L157.491 20.17L160.311 17.77Z" fill="#072227"/>
<g clip-path="url(#clip0_235_34)">
<path d="M22.0879 24.0619L13.8995 11.5283C13.0111 10.5086 13.1332 8.97465 14.1725 8.10241C15.2118 7.23018 16.7744 7.34991 17.6629 8.36974L23.5569 18.0542L29.4431 8.30876C30.3209 7.27979 31.8822 7.14402 32.9305 8.00533C33.981 8.86881 34.1145 10.4018 33.2388 11.4283L25.5879 24.0438C24.6041 25.197 23.0808 25.2016 22.0879 24.0619Z" fill="#4FBDBA"/>
</g>
<g clip-path="url(#clip1_235_34)">
<path d="M9.0311 13.1293L0.972855 25.7469C0.0950138 26.7758 0.23302 28.3084 1.28129 29.1699C2.32956 30.0313 3.89085 29.8954 4.76869 28.8664L10.5621 19.1215L16.5489 28.8054C17.4374 29.8253 19 29.9449 20.0393 29.0728C21.0808 28.1985 21.1985 26.6641 20.3121 25.6468L12.5311 13.1112C11.5354 11.9682 10.0122 11.9794 9.0311 13.1293Z" fill="#35858B"/>
</g>
<defs>
<clipPath id="clip0_235_34">
<rect width="20" height="21" fill="white" transform="matrix(0.0051757 0.999987 0.999987 -0.0051757 13 7.10867)"/>
</clipPath>
<clipPath id="clip1_235_34">
<rect width="20" height="21" fill="white" transform="translate(0.119141 30.1757) rotate(-90.2965)"/>
</clipPath>
</defs>
</svg>
