<svg width="35" height="24" viewBox="0 0 35 24" fill="none" xmlns="http://www.w3.org/2000/svg">
<g clip-path="url(#clip0_252_432)">
<path d="M22.0879 17.0619L13.8995 4.52835C13.0111 3.50864 13.1332 1.97465 14.1725 1.10241C15.2118 0.230183 16.7744 0.349906 17.6629 1.36974L23.5569 11.0542L29.4431 1.30876C30.3209 0.279792 31.8822 0.144022 32.9305 1.00533C33.981 1.86881 34.1145 3.40184 33.2388 4.42825L25.5879 17.0438C24.6041 18.197 23.0808 18.2016 22.0879 17.0619Z" fill="#4FBDBA"/>
</g>
<g clip-path="url(#clip1_252_432)">
<path d="M9.0311 6.12931L0.972855 18.7469C0.0950138 19.7758 0.23302 21.3084 1.28129 22.1699C2.32956 23.0313 3.89085 22.8954 4.76869 21.8664L10.5621 12.1215L16.5489 21.8054C17.4374 22.8253 19 22.9449 20.0393 22.0728C21.0808 21.1985 21.1985 19.6641 20.3121 18.6468L12.5311 6.11119C11.5354 4.96824 10.0122 4.9794 9.0311 6.12931Z" fill="#35858B"/>
</g>
<defs>
<clipPath id="clip0_252_432">
<rect width="20" height="21" fill="white" transform="matrix(0.0051757 0.999987 0.999987 -0.0051757 13 0.108673)"/>
</clipPath>
<clipPath id="clip1_252_432">
<rect width="20" height="21" fill="white" transform="translate(0.119141 23.1757) rotate(-90.2965)"/>
</clipPath>
</defs>
</svg>
