<svg width="56" height="56" viewBox="0 0 56 56" fill="none" xmlns="http://www.w3.org/2000/svg">
<circle cx="28" cy="28" r="28" fill="#35858B"/>
<path d="M18.1818 17C16.9764 17 16 17.9845 16 19.2V32.4C16 33.6155 16.9764 34.6 18.1818 34.6H25.8182V36.8H24.7273C24.1251 36.8 23.6364 37.2928 23.6364 37.9C23.6364 38.5072 24.1251 39 24.7273 39H31.2727C31.8749 39 32.3636 38.5072 32.3636 37.9C32.3636 37.2928 31.8749 36.8 31.2727 36.8H30.1818V34.6H37.8182C39.0236 34.6 40 33.6155 40 32.4V19.2C40 17.9845 39.0236 17 37.8182 17H18.1818ZM18.1818 19.2H37.8182V32.4H18.1818V19.2ZM32.7259 20.3043L29.0909 20.7898V24.7H33.4545V20.9617C33.4545 20.5679 33.1142 20.2603 32.7259 20.3043ZM26.9091 21.1723L23.3977 21.5676C22.9123 21.6226 22.5455 22.0351 22.5455 22.5279V24.7H26.9091V21.1723ZM22.5455 26.9V29.0721C22.5455 29.5649 22.9123 29.9785 23.3977 30.0324L26.9091 30.4277V26.9H22.5455ZM29.0909 26.9V30.8102L32.7259 31.2957C33.1142 31.3397 33.4545 31.0321 33.4545 30.6383V26.9H29.0909Z" fill="white"/>
</svg>
